# Blender v2.78 (sub 0) OBJ File: 'Column.blend'
# www.blender.org
o Low_Poly_Cube.035
v 0.000000 0.000000 -1.000000
v 0.000000 2.000000 -1.000000
v -1.000000 0.000000 0.000000
v -1.000000 2.000000 0.000000
v 0.000000 0.400000 -1.000000
v 0.000000 0.800000 -1.000000
v 0.000000 1.200000 -1.000000
v 0.000000 1.600000 -1.000000
v -1.000000 1.600000 0.000000
v -1.000000 1.200000 0.000000
v -1.000000 0.800000 0.000000
v -1.000000 0.400000 0.000000
v -1.000000 0.000000 -1.000000
v -1.000000 2.000000 -1.000000
v -1.000000 0.400000 -1.000000
v -1.000000 0.800000 -1.000000
v -1.000000 1.200000 -1.000000
v -1.000000 1.600000 -1.000000
v 0.000000 2.000000 -1.000000
v 0.000000 4.000000 -1.000000
v -1.000000 2.000000 0.000000
v -1.000000 4.000000 0.000000
v 0.000000 2.400000 -1.000000
v 0.000000 2.800000 -1.000000
v 0.000000 3.200000 -1.000000
v 0.000000 3.600000 -1.000000
v -1.000000 3.600000 0.000000
v -1.000000 3.200000 0.000000
v -1.000000 2.800000 0.000000
v -1.000000 2.400000 0.000000
v -1.000000 2.000000 -1.000000
v -1.000000 4.000000 -1.000000
v -1.000000 2.400000 -1.000000
v -1.000000 2.800000 -1.000000
v -1.000000 3.200000 -1.000000
v -1.000000 3.600000 -1.000000
v 0.000000 4.000000 -1.000000
v 0.000000 6.000000 -1.000000
v -1.000000 4.000000 0.000000
v -1.000000 6.000000 0.000000
v 0.000000 4.400000 -1.000000
v 0.000000 4.800000 -1.000000
v 0.000000 5.200000 -1.000000
v 0.000000 5.600000 -1.000000
v -1.000000 5.600000 0.000000
v -1.000000 5.200000 0.000000
v -1.000000 4.800000 0.000000
v -1.000000 4.400000 0.000000
v -1.000000 4.000000 -1.000000
v -1.000000 6.000000 -1.000000
v -1.000000 4.400000 -1.000000
v -1.000000 4.800000 -1.000000
v -1.000000 5.200000 -1.000000
v -1.000000 5.600000 -1.000000
vt 0.9999 0.7997
vt 0.9999 0.9996
vt 0.5001 0.9996
vt 0.5001 0.7997
vt 0.9999 0.0001
vt 0.9999 0.2000
vt 0.5001 0.2000
vt 0.5001 0.0001
vt 0.9999 0.3999
vt 0.5001 0.3999
vt 0.9999 0.5998
vt 0.5001 0.5998
vt 0.4999 0.5998
vt 0.4999 0.7997
vt 0.0001 0.7997
vt 0.0001 0.5998
vt 0.4999 0.3999
vt 0.0001 0.3999
vt 0.4999 0.2000
vt 0.0001 0.2000
vt 0.4999 0.0001
vt 0.0001 0.0001
vt 0.4999 0.9996
vt 0.0001 0.9996
vt 0.9999 0.7997
vt 0.9999 0.9996
vt 0.5001 0.9996
vt 0.5001 0.7997
vt 0.9999 0.0001
vt 0.9999 0.2000
vt 0.5001 0.2000
vt 0.5001 0.0001
vt 0.9999 0.3999
vt 0.5001 0.3999
vt 0.9999 0.5998
vt 0.5001 0.5998
vt 0.4999 0.5998
vt 0.4999 0.7997
vt 0.0001 0.7997
vt 0.0001 0.5998
vt 0.4999 0.3999
vt 0.0001 0.3999
vt 0.4999 0.2000
vt 0.0001 0.2000
vt 0.4999 0.0001
vt 0.0001 0.0001
vt 0.4999 0.9996
vt 0.0001 0.9996
vt 0.9999 0.7997
vt 0.9999 0.9996
vt 0.5001 0.9996
vt 0.5001 0.7997
vt 0.9999 0.0001
vt 0.9999 0.2000
vt 0.5001 0.2000
vt 0.5001 0.0001
vt 0.9999 0.3999
vt 0.5001 0.3999
vt 0.9999 0.5998
vt 0.5001 0.5998
vt 0.4999 0.5998
vt 0.4999 0.7997
vt 0.0001 0.7997
vt 0.0001 0.5998
vt 0.4999 0.3999
vt 0.0001 0.3999
vt 0.4999 0.2000
vt 0.0001 0.2000
vt 0.4999 0.0001
vt 0.0001 0.0001
vt 0.4999 0.9996
vt 0.0001 0.9996
vn 0.0000 0.0000 -1.0000
vn -1.0000 0.0000 0.0000
s off
f 18/1/1 14/2/1 2/3/1 8/4/1
f 13/5/1 15/6/1 5/7/1 1/8/1
f 15/6/1 16/9/1 6/10/1 5/7/1
f 16/9/1 17/11/1 7/12/1 6/10/1
f 17/11/1 18/1/1 8/4/1 7/12/1
f 10/13/2 9/14/2 18/15/2 17/16/2
f 11/17/2 10/13/2 17/16/2 16/18/2
f 12/19/2 11/17/2 16/18/2 15/20/2
f 3/21/2 12/19/2 15/20/2 13/22/2
f 9/14/2 4/23/2 14/24/2 18/15/2
f 36/25/1 32/26/1 20/27/1 26/28/1
f 31/29/1 33/30/1 23/31/1 19/32/1
f 33/30/1 34/33/1 24/34/1 23/31/1
f 34/33/1 35/35/1 25/36/1 24/34/1
f 35/35/1 36/25/1 26/28/1 25/36/1
f 28/37/2 27/38/2 36/39/2 35/40/2
f 29/41/2 28/37/2 35/40/2 34/42/2
f 30/43/2 29/41/2 34/42/2 33/44/2
f 21/45/2 30/43/2 33/44/2 31/46/2
f 27/38/2 22/47/2 32/48/2 36/39/2
f 54/49/1 50/50/1 38/51/1 44/52/1
f 49/53/1 51/54/1 41/55/1 37/56/1
f 51/54/1 52/57/1 42/58/1 41/55/1
f 52/57/1 53/59/1 43/60/1 42/58/1
f 53/59/1 54/49/1 44/52/1 43/60/1
f 46/61/2 45/62/2 54/63/2 53/64/2
f 47/65/2 46/61/2 53/64/2 52/66/2
f 48/67/2 47/65/2 52/66/2 51/68/2
f 39/69/2 48/67/2 51/68/2 49/70/2
f 45/62/2 40/71/2 50/72/2 54/63/2
