# Blender v2.78 (sub 0) OBJ File: 'Floor.blend'
# www.blender.org
o Plane_Plane.003
v -3.000000 0.000000 3.000000
v 3.000000 0.000000 3.000000
v -3.000000 0.000000 -3.000000
v 3.000000 0.000000 -3.000000
v -3.000000 0.000000 -1.000000
v -3.000000 0.000000 1.000000
v 3.000000 0.000000 1.000000
v 3.000000 0.000000 -1.000000
v -1.000000 0.000000 3.000000
v 1.000000 0.000000 3.000000
v 1.000000 0.000000 -3.000000
v -1.000000 0.000000 -3.000000
v 1.000000 0.000000 1.000000
v -1.000000 0.000000 1.000000
v 1.000000 0.000000 -1.000000
v -1.000000 0.000000 -1.000000
vt 0.9999 0.9999
vt 1.9997 0.9999
vt 1.9997 1.9997
vt 0.9999 1.9997
vt 0.9999 -0.9997
vt 1.9997 -0.9997
vt 1.9997 0.0001
vt 0.9999 0.0001
vt -0.9997 0.0001
vt 0.0001 0.0001
vt 0.0001 0.9999
vt -0.9997 0.9999
vt -0.9997 -0.9997
vt 0.0001 -0.9997
vt 0.0001 1.9997
vt -0.9997 1.9997
vn 0.0000 1.0000 0.0000
s off
f 15/1/1 8/2/1 4/3/1 11/4/1
f 10/5/1 2/6/1 7/7/1 13/8/1
f 13/8/1 7/7/1 8/2/1 15/1/1
f 6/9/1 14/10/1 16/11/1 5/12/1
f 14/10/1 13/8/1 15/1/1 16/11/1
f 1/13/1 9/14/1 14/10/1 6/9/1
f 9/14/1 10/5/1 13/8/1 14/10/1
f 5/12/1 16/11/1 12/15/1 3/16/1
f 16/11/1 15/1/1 11/4/1 12/15/1
