# Blender v2.78 (sub 0) OBJ File: 'Wall.blend'
# www.blender.org
o Wall_Fin_Plane.002
v -2.000000 0.800000 -0.500000
v -2.000000 0.400000 -0.500000
v -1.600000 1.600000 -0.500000
v -1.600000 1.200000 -0.500000
v -1.600000 0.800000 -0.500000
v -1.600000 0.400000 -0.500000
v -2.000000 3.600000 -0.500000
v -2.000000 2.800000 -0.500000
v -2.000000 2.400000 -0.500000
v -1.600000 3.600000 -0.500000
v -1.600000 3.200000 -0.500000
v -1.600000 2.400000 -0.500000
v -2.000000 5.600000 -0.500000
v -1.600000 4.400000 -0.500000
v 2.000000 0.000000 -0.500000
v 0.400000 0.000000 -0.500000
v 2.000000 2.000000 -0.500000
v 0.400000 2.000000 -0.500000
v 2.000000 1.600000 -0.500000
v 2.000000 1.200000 -0.500000
v 2.000000 0.800000 -0.500000
v 2.000000 0.400000 -0.500000
v 0.400000 0.400000 -0.500000
v 0.400000 0.800000 -0.500000
v 0.400000 1.200000 -0.500000
v 0.400000 1.600000 -0.500000
v -0.000000 0.800000 -0.500000
v 2.000000 4.000000 -0.500000
v 0.400000 4.000000 -0.500000
v 2.000000 3.600000 -0.500000
v 2.000000 3.200000 -0.500000
v 2.000000 2.800000 -0.500000
v 2.000000 2.400000 -0.500000
v 0.400000 2.800000 -0.500000
v -0.000000 2.000000 -0.500000
v -0.000000 4.000000 -0.500000
v -0.000000 2.400000 -0.500000
v -0.000000 3.600000 -0.500000
v 2.000000 6.000000 -0.500000
v 0.400000 6.000000 -0.500000
v 2.000000 5.600000 -0.500000
v 2.000000 5.200000 -0.500000
v 2.000000 4.800000 -0.500000
v 2.000000 4.400000 -0.500000
v 0.400000 4.400000 -0.500000
v 0.400000 4.800000 -0.500000
v 0.400000 5.600000 -0.500000
v -0.000000 6.000000 -0.500000
v -0.000000 5.200000 -0.500000
v 0.000000 0.000000 -0.500000
v -1.600000 0.000000 -0.500000
v -1.600000 2.000000 -0.500000
v 0.000000 1.600000 -0.500000
v 0.000000 1.200000 -0.500000
v 0.000000 0.400000 -0.500000
v -2.000000 0.000000 -0.500000
v -2.000000 2.000000 -0.500000
v -2.000000 1.200000 -0.500000
v -2.000000 1.600000 -0.500000
v 0.000000 3.200000 -0.500000
v 0.000000 2.800000 -0.500000
v -1.600000 2.800000 -0.500000
v -2.000000 4.000000 -0.500000
v -2.000000 3.200000 -0.500000
v 0.400000 3.600000 -0.500000
v 0.400000 3.200000 -0.500000
v 0.400000 2.400000 -0.500000
v -1.600000 4.000000 -0.500000
v -1.600000 6.000000 -0.500000
v 0.000000 5.600000 -0.500000
v 0.000000 4.800000 -0.500000
v 0.000000 4.400000 -0.500000
v -1.600000 4.800000 -0.500000
v -1.600000 5.200000 -0.500000
v -1.600000 5.600000 -0.500000
v -2.000000 6.000000 -0.500000
v -2.000000 4.400000 -0.500000
v -2.000000 4.800000 -0.500000
v -2.000000 5.200000 -0.500000
v 0.400000 5.200000 -0.500000
vt 0.8000 0.1667
vt 0.6000 0.1667
vt 0.6000 0.0000
vt 0.8000 0.0000
vt 0.4000 0.1667
vt 0.2000 0.1667
vt 0.2000 0.0000
vt 0.4000 0.0000
vt 0.8000 0.1667
vt 0.6000 0.1667
vt 0.6000 0.0000
vt 0.8000 0.0000
vt 0.4000 0.1667
vt 0.2000 0.1667
vt 0.2000 0.0000
vt 0.4000 0.0000
vt 0.8000 0.1667
vt 0.6000 0.1667
vt 0.6000 0.0000
vt 0.8000 0.0000
vt 0.4000 0.1667
vt 0.2000 0.1667
vt 0.2000 0.0000
vt 0.4000 0.0000
vt 0.2000 0.1667
vt 0.2000 0.8333
vt 0.0000 0.8333
vt 0.0000 0.1667
vt 1.0000 0.1667
vt 1.0000 0.8333
vt 0.8000 0.8333
vt 0.8000 0.1667
vt 0.6000 0.8333
vt 0.6000 0.1667
vt 0.4000 0.8333
vt 0.4000 0.1667
vt 0.6000 1.0000
vt 0.4000 1.0000
vt 1.0000 1.0000
vt 0.8000 1.0000
vt 0.2000 1.0000
vt 0.0000 1.0000
vt 0.2000 0.1667
vt 0.2000 0.8333
vt 0.0000 0.8333
vt 0.0000 0.1667
vt 1.0000 0.1667
vt 1.0000 0.8333
vt 0.8000 0.8333
vt 0.8000 0.1667
vt 0.6000 0.8333
vt 0.6000 0.1667
vt 0.4000 0.8333
vt 0.4000 0.1667
vt 0.6000 1.0000
vt 0.4000 1.0000
vt 1.0000 1.0000
vt 0.8000 1.0000
vt 0.2000 1.0000
vt 0.0000 1.0000
vt 0.2000 0.1667
vt 0.2000 0.8333
vt 0.0000 0.8333
vt 0.0000 0.1667
vt 1.0000 0.1667
vt 1.0000 0.8333
vt 0.8000 0.8333
vt 0.8000 0.1667
vt 0.6000 0.8333
vt 0.6000 0.1667
vt 0.4000 0.8333
vt 0.4000 0.1667
vt 0.6000 1.0000
vt 0.4000 1.0000
vt 1.0000 1.0000
vt 0.8000 1.0000
vt 0.2000 1.0000
vt 0.0000 1.0000
vt 0.2000 0.1667
vt 0.2000 0.8333
vt 0.0000 0.8333
vt 0.0000 0.1667
vt 1.0000 0.1667
vt 1.0000 0.8333
vt 0.8000 0.8333
vt 0.8000 0.1667
vt 0.6000 0.8333
vt 0.6000 0.1667
vt 0.4000 0.8333
vt 0.4000 0.1667
vt 0.6000 1.0000
vt 0.4000 1.0000
vt 1.0000 1.0000
vt 0.8000 1.0000
vt 0.2000 1.0000
vt 0.0000 1.0000
vt 0.6000 0.0000
vt 0.8000 0.0000
vt 0.2000 0.0000
vt 0.4000 0.0000
vt 0.2000 0.1667
vt 0.2000 0.8333
vt 0.0000 0.8333
vt 0.0000 0.1667
vt 1.0000 0.1667
vt 1.0000 0.8333
vt 0.8000 0.8333
vt 0.8000 0.1667
vt 0.6000 0.8333
vt 0.6000 0.1667
vt 0.4000 0.8333
vt 0.4000 0.1667
vt 0.6000 1.0000
vt 0.4000 1.0000
vt 1.0000 1.0000
vt 0.8000 1.0000
vt 0.2000 1.0000
vt 0.0000 1.0000
vt 0.6000 0.0000
vt 0.8000 0.0000
vt 0.2000 0.0000
vt 0.4000 0.0000
vt 0.2000 0.1667
vt 0.2000 0.8333
vt 0.0000 0.8333
vt 0.0000 0.1667
vt 1.0000 0.1667
vt 1.0000 0.8333
vt 0.8000 0.8333
vt 0.8000 0.1667
vt 0.6000 0.8333
vt 0.6000 0.1667
vt 0.4000 0.8333
vt 0.4000 0.1667
vt 0.6000 1.0000
vt 0.4000 1.0000
vt 1.0000 1.0000
vt 0.8000 1.0000
vt 0.2000 1.0000
vt 0.0000 1.0000
vt 0.6000 0.0000
vt 0.8000 0.0000
vt 0.2000 0.0000
vt 0.4000 0.0000
vn 0.0000 0.0000 -1.0000
s off
f 2/1/1 1/2/1 5/3/1 6/4/1
f 58/5/1 59/6/1 3/7/1 4/8/1
f 9/9/1 8/10/1 62/11/1 12/12/1
f 64/13/1 7/14/1 10/15/1 11/16/1
f 77/17/1 78/18/1 73/19/1 14/20/1
f 79/21/1 13/22/1 75/23/1 74/24/1
f 19/25/1 26/26/1 18/27/1 17/28/1
f 15/29/1 16/30/1 23/31/1 22/32/1
f 22/32/1 23/31/1 24/33/1 21/34/1
f 21/34/1 24/33/1 25/35/1 20/36/1
f 20/36/1 25/35/1 26/26/1 19/25/1
f 25/35/1 24/33/1 27/37/1 54/38/1
f 23/31/1 16/30/1 50/39/1 55/40/1
f 18/27/1 26/26/1 53/41/1 35/42/1
f 30/43/1 65/44/1 29/45/1 28/46/1
f 17/47/1 18/48/1 67/49/1 33/50/1
f 33/50/1 67/49/1 34/51/1 32/52/1
f 32/52/1 34/51/1 66/53/1 31/54/1
f 31/54/1 66/53/1 65/44/1 30/43/1
f 66/53/1 34/51/1 61/55/1 60/56/1
f 67/49/1 18/48/1 35/57/1 37/58/1
f 29/45/1 65/44/1 38/59/1 36/60/1
f 41/61/1 47/62/1 40/63/1 39/64/1
f 28/65/1 29/66/1 45/67/1 44/68/1
f 44/68/1 45/67/1 46/69/1 43/70/1
f 43/70/1 46/69/1 80/71/1 42/72/1
f 42/72/1 80/71/1 47/62/1 41/61/1
f 80/71/1 46/69/1 71/73/1 49/74/1
f 45/67/1 29/66/1 36/75/1 72/76/1
f 40/63/1 47/62/1 70/77/1 48/78/1
f 53/79/1 3/80/1 52/81/1 35/82/1
f 50/83/1 51/84/1 6/85/1 55/86/1
f 55/86/1 6/85/1 5/87/1 27/88/1
f 27/88/1 5/87/1 4/89/1 54/90/1
f 54/90/1 4/89/1 3/80/1 53/79/1
f 4/89/1 5/87/1 1/91/1 58/92/1
f 6/85/1 51/84/1 56/93/1 2/94/1
f 52/81/1 3/80/1 59/95/1 57/96/1
f 55/86/1 27/88/1 24/97/1 23/98/1
f 54/90/1 53/79/1 26/99/1 25/100/1
f 38/101/1 10/102/1 68/103/1 36/104/1
f 35/105/1 52/106/1 12/107/1 37/108/1
f 37/108/1 12/107/1 62/109/1 61/110/1
f 61/110/1 62/109/1 11/111/1 60/112/1
f 60/112/1 11/111/1 10/102/1 38/101/1
f 11/111/1 62/109/1 8/113/1 64/114/1
f 12/107/1 52/106/1 57/115/1 9/116/1
f 68/103/1 10/102/1 7/117/1 63/118/1
f 37/108/1 61/110/1 34/119/1 67/120/1
f 60/112/1 38/101/1 65/121/1 66/122/1
f 70/123/1 75/124/1 69/125/1 48/126/1
f 36/127/1 68/128/1 14/129/1 72/130/1
f 72/130/1 14/129/1 73/131/1 71/132/1
f 71/132/1 73/131/1 74/133/1 49/134/1
f 49/134/1 74/133/1 75/124/1 70/123/1
f 74/133/1 73/131/1 78/135/1 79/136/1
f 14/129/1 68/128/1 63/137/1 77/138/1
f 69/125/1 75/124/1 13/139/1 76/140/1
f 72/130/1 71/132/1 46/141/1 45/142/1
f 49/134/1 70/123/1 47/143/1 80/144/1
